<svg xmlns="http://www.w3.org/2000/svg" viewBox="0 0 500 670" style="fill:#4287f5;">
  <text x="119.14" y="211.377" style="font-family:Arial,sans-serif;font-size:28px;white-space:pre;transform-box:fill-box;transform-origin:9.3385px 15.661px" transform="matrix(3.90312 -1.88267 -.30739 6.742 16.817 74.874)">S</text>
  <text x="119.14" y="211.377" style="font-family:Arial,sans-serif;font-size:28px;white-space:pre;transform-box:fill-box;transform-origin:10.8896px 15.6527px" transform="matrix(5.42108 -.2306 .0586 5.2186 95.919 63.023)">O</text>
  <text x="119.14" y="211.377" style="font-family:Arial,sans-serif;font-size:28px;white-space:pre;transform-origin:130.031px 201.751px" transform="matrix(5.35449 .94934 -1.31058 6.24818 202.298 60.563)">L</text>
  <path d="M245.292 300h15.286v48.915h-15.286z" style="stroke:#4287f5;transform-box:fill-box;transform-origin:50% 50%" transform="rotate(-21.485 -33.357 -1.521)"/>
  <path d="m185.929 209.949 1.232-9.949s-4.682-4.343-4.928-4.343c-.246 0-5.175-5.42-5.175-5.42l-3.696-5.175-3.942-4.57-6.131-7.294 1.75-4.454.959-2.864v-2.705l-.8-4.764-1.829-3.5-2.069-3.288-.636 3.898-.716 1.909s-1.909 1.83-2.307 1.83c-.398 0-3.579 1.75-3.579 1.75l-8.612 2.091-6.554 1.673-7.81 2.929-8.088 3.765-4.462 3.207-6.136 4.324-3.765 5.159-3.208 4.184-2.789 3.626-.697 3.207v2.51l.418 2.315 2.092 2.287s2.092 1.395 2.231 1.395c.139 0 5.299 2.51 5.299 2.51s6.694 2.37 6.834 2.37c.14 0 6.135 2.232 6.135 2.232l7.252 2.51 4.184 2.371 29.842-3.347s19.663-2.371 19.701-2.379Z" style="stroke:#4287f5"/>
  <path d="m184.415 212.125 21.993 3.404 17.541-5.237-3.796-1.309-4.058-.654-7.331-.524-5.367-.785-4.713-.917-3.927-1.309-3.011-1.571-2.225-1.702-4.713-3.403-.393 14.007Z" style="stroke:#4287f5"/>
  <path d="m283.631 254.526 4.021-5.567 5.292-9.589 5.569-12.443 5.475-12.443 6.222-10.453 6.719-10.452 6.969-8.813 6.665-4.45 8.191-4.096 8.44-.992 6.578.124 4.343 1.475 5.833 3.227 3.972 2.979 5.243 4.343 3.444 5.213 2.234 5.088 2.483 6.454s1.489 5.075 1.489 5.199c0 .124.993 7.322.993 7.322l-.124 5.585s2.73-7.322 2.73-7.446c0-.124 1.117-4.841 1.117-4.841l.745-5.585-.249-5.957v-5.709l-.868-5.985-2.11-7.322-2.731-5.957-4.095-6.33-2.979-3.102-6.081-3.103-5.337-1.614-4.468-.62-8.191-.124-2.73.62-2.606.869 2.482-2.482 4.964-1.986 4.716-1.365 5.337-.869s4.344 0 4.716.249c.372.249 3.599 1.241 3.847 1.365.248.124 4.096 1.861 4.096 1.861l3.971 2.855-.62-2.606-1.489-2.855-3.227-3.351-4.22-4.22-4.468-2.854-7.695-1.889-5.584-.373-6.454.869-4.592 1.489-4.344 1.366s1.117-2.731 1.117-2.855c0-.124 3.972-2.73 3.972-2.73l4.84-2.606 5.212-1.366 6.082-.124s3.351.124 3.723.248c.372.124 3.227 1.242 3.227 1.242l-4.096-3.724-3.847-2.433-5.461-2.531-3.599-1.241-6.702-.993-7.571.248-5.584 1.614-5.089 2.903-3.599 2.93-3.475 4.095-2.855 4.592-3.102 5.833-1.241-6.357 1.737-5.102 3.227-5.991 5.212-3.938 3.476-1.737-6.826-.124-5.461.62-6.454 2.234-8.315 2.945-7.322 6.487-7.819 8.254-4.22 6.86-4.096 8.564-3.599 10.673-1.861 4.964-1.241 10.425-.249 5.833.745 11.667 1.241 11.914s3.034 11.807 3.159 11.807 5.769 15.968 5.769 15.968l11.929-23.983 4.078-15.432-1.354 6.786.372 5.957-1.862 8.44-4.095 13.265-6.386 16.507-4.039 10.549 8.315-11.17" style="stroke:#4287f5;transform-box:fill-box;transform-origin:50% 50%" transform="rotate(-10.382 0 0)"/>
  <path d="m173.147 231.543 7.552-2.167 10.046-1.054 11.297-12.647-24.494-10.54-9.283 13.025 4.882 13.383ZM284.17 299.07l-6.096.93.928-6.646L264.257 300c-15.879 12.703 2.987-32.618 2.987-32.618v-40.339c18.657 28.412 18.656 27.484 18.656 27.484l-.002 40.073" style="stroke:#4287f5"/>
</svg>